<?xml version="1.0" encoding="UTF-8" standalone="no"?>
<svg width="18px" height="18px" viewBox="0 0 18 18" version="1.1" xmlns="http://www.w3.org/2000/svg" xmlns:xlink="http://www.w3.org/1999/xlink" xmlns:sketch="http://www.bohemiancoding.com/sketch/ns">
    <!-- Generator: Sketch 3.3.1 (12005) - http://www.bohemiancoding.com/sketch -->
    <title>settings-icon</title>
    <desc>Created with Sketch.</desc>
    <defs></defs>
    <g id="Page-1" stroke="none" stroke-width="1" fill="none" fill-rule="evenodd" sketch:type="MSPage">
        <path d="M16.1385,7.608 C15.831,7.56375 15.504,7.287 15.40875,6.993 L14.952,5.88225 C14.80875,5.6085 14.8425,5.181 15.027,4.93425 L15.7695,3.94575 C15.954,3.69825 15.93975,3.30525 15.73425,3.07425 L14.92125,2.25975 C14.6895,2.05575 14.29725,2.04 14.04825,2.226 L13.06125,2.967 C12.81375,3.153 12.38775,3.18675 12.11325,3.04275 L11.00325,2.586 C10.707,2.4915 10.43025,2.1645 10.38825,1.85775 L10.21275,0.636 C10.17,0.32925 9.882,0.0525 9.57525,0.0195 C9.57525,0.0195 9.384,0 8.99775,0 C8.61225,0 8.421,0.0195 8.421,0.0195 C8.1135,0.0525 7.8255,0.32925 7.782,0.636 L7.60725,1.85775 C7.56375,2.1645 7.287,2.4915 6.99225,2.586 L5.88225,3.04275 C5.60775,3.186 5.18175,3.153 4.93425,2.967 L3.94575,2.22525 C3.69825,2.03925 3.30525,2.05425 3.0735,2.259 L2.2605,3.0735 C2.0565,3.30525 2.04,3.6975 2.226,3.945 L2.967,4.9335 C3.15375,5.181 3.18675,5.60775 3.0435,5.8815 L2.58525,6.993 C2.4915,7.28775 2.16375,7.5645 1.857,7.608 L0.63525,7.78125 C0.32925,7.8255 0.0525,8.11275 0.02025,8.421 C0.02025,8.421 0,8.61225 0,8.9985 C0,9.38475 0.02025,9.576 0.02025,9.576 C0.0525,9.88425 0.32925,10.17075 0.63525,10.215 L1.857,10.389 C2.163,10.43325 2.4915,10.71 2.58525,11.004 L3.0435,12.114 C3.18675,12.38775 3.153,12.816 2.967,13.062 L2.226,14.0505 C2.04,14.298 1.995,14.63475 2.127,14.796 C2.25825,14.95875 2.63475,15.36 2.6355,15.3615 C2.63625,15.363 2.76375,15.4785 2.91675,15.6195 C3.06975,15.7605 3.69825,15.95625 3.94575,15.77175 L4.9335,15.02925 C5.181,14.84475 5.607,14.8095 5.8815,14.95425 L6.9915,15.411 C7.287,15.50475 7.56375,15.8325 7.6065,16.13925 L7.78125,17.361 C7.82475,17.667 8.112,17.94525 8.42025,17.9775 C8.42025,17.9775 8.6115,17.99775 8.997,17.99775 C9.38325,17.99775 9.5745,17.9775 9.5745,17.9775 C9.88125,17.94525 10.16925,17.667 10.212,17.361 L10.3875,16.13925 C10.43025,15.83325 10.707,15.50475 11.0025,15.411 L12.1125,14.95275 C12.38625,14.8095 12.813,14.84325 13.0605,15.02925 L14.049,15.77175 C14.298,15.95625 14.6895,15.942 14.922,15.7365 L15.7335,14.9235 C15.93825,14.69025 15.95325,14.298 15.76875,14.0505 L15.02625,13.062 C14.84175,12.816 14.808,12.3885 14.95125,12.114 L15.408,11.004 C15.50325,10.70925 15.8295,10.4325 16.13775,10.389 L17.358,10.215 C17.6655,10.17075 17.94225,9.88425 17.9745,9.576 C17.9745,9.576 17.99475,9.38475 17.99475,8.9985 C17.99475,8.61225 17.9745,8.421 17.9745,8.421 C17.94225,8.1135 17.6655,7.8255 17.358,7.78125 L16.1385,7.608 L16.1385,7.608 Z M8.99775,11.2485 C7.755,11.2485 6.74775,10.2405 6.74775,8.9985 C6.74775,7.75575 7.755,6.7485 8.99775,6.7485 C10.2405,6.7485 11.24775,7.7565 11.24775,8.9985 C11.24775,10.2405 10.23975,11.2485 8.99775,11.2485 L8.99775,11.2485 Z" id="Settings-icon" fill="#FFFFFF" sketch:type="MSShapeGroup"></path>
    </g>
</svg>