<?xml version="1.0" encoding="UTF-8" standalone="no"?>
<svg width="19px" height="16px" viewBox="0 0 19 16" version="1.1" xmlns="http://www.w3.org/2000/svg" xmlns:xlink="http://www.w3.org/1999/xlink" xmlns:sketch="http://www.bohemiancoding.com/sketch/ns">
    <!-- Generator: Sketch 3.3.3 (12081) - http://www.bohemiancoding.com/sketch -->
    <title>icon-user copy</title>
    <desc>Created with Sketch.</desc>
    <defs></defs>
    <g id="Page-1" stroke="none" stroke-width="1" fill="none" fill-rule="evenodd" sketch:type="MSPage">
        <g id="icon-user-copy" sketch:type="MSLayerGroup" fill="#FFFFFF">
            <path d="M15.0864872,8.82478279 C17.3252724,10.460868 18.8213123,13.0527641 18.9741359,16 L18.9741359,16 L9.99599709e-14,16 C0.153233677,13.0448545 1.65690311,10.4469586 3.90568967,8.81163099 C5.0380783,10.7204474 7.11961138,12 9.5,12 C11.8749175,12 13.9523516,10.7263225 15.0864872,8.82478279 Z" id="Oval-230" sketch:type="MSShapeGroup"></path>
            <path d="M9.5,9 C11.9852814,9 14,6.98528137 14,4.5 C14,2.01471863 11.9852814,0 9.5,0 C7.01471863,0 5,2.01471863 5,4.5 C5,6.98528137 7.01471863,9 9.5,9 Z M8.79855322,7.6806667 C9.19058912,8.04707975 9.82504244,8.04812897 10.2181514,7.6806667 L11.2987903,6.67052959 C11.6907768,6.30411654 11.581158,6.00708008 11.0359509,6.00708008 L10.2067896,6.00708008 L7.97457864,6.00708008 C7.44071586,6.00708008 7.32461986,6.30306732 7.71777835,6.67052959 L8.79855322,7.6806667 Z M7.5,4 C7.77614237,4 8,3.77614237 8,3.5 C8,3.22385763 7.77614237,3 7.5,3 C7.22385763,3 7,3.22385763 7,3.5 C7,3.77614237 7.22385763,4 7.5,4 Z M11.5,4 C11.7761424,4 12,3.77614237 12,3.5 C12,3.22385763 11.7761424,3 11.5,3 C11.2238576,3 11,3.22385763 11,3.5 C11,3.77614237 11.2238576,4 11.5,4 Z" id="Oval-230-Copy" sketch:type="MSShapeGroup"></path>
        </g>
    </g>
</svg>