<?xml version="1.0" encoding="UTF-8" standalone="no"?>
<svg width="19px" height="16px" viewBox="0 0 19 16" version="1.1" xmlns="http://www.w3.org/2000/svg" xmlns:xlink="http://www.w3.org/1999/xlink" xmlns:sketch="http://www.bohemiancoding.com/sketch/ns">
    <!-- Generator: Sketch 3.3.3 (12081) - http://www.bohemiancoding.com/sketch -->
    <title>icon-user</title>
    <desc>Created with Sketch.</desc>
    <defs></defs>
    <g id="Page-1" stroke="none" stroke-width="1" fill="none" fill-rule="evenodd" sketch:type="MSPage">
        <g id="icon-user" sketch:type="MSLayerGroup" fill="#FFFFFF">
            <path d="M15.0864872,8.82478279 C17.3252724,10.460868 18.8213123,13.0527641 18.9741359,16 L18.9741359,16 L9.99599709e-14,16 C0.153233677,13.0448545 1.65690311,10.4469586 3.90568967,8.81163099 C5.0380783,10.7204474 7.11961138,12 9.5,12 C11.8749175,12 13.9523516,10.7263225 15.0864872,8.82478279 Z" id="Oval-230" sketch:type="MSShapeGroup"></path>
            <path d="M9.5,9 C11.9852814,9 14,6.98528137 14,4.5 C14,2.01471863 11.9852814,0 9.5,0 C7.01471863,0 5,2.01471863 5,4.5 C5,6.98528137 7.01471863,9 9.5,9 Z M7,6 C7,5.44771525 7.44371665,5 7.99980749,5 L11.0001925,5 C11.5523709,5 12,5.44386482 12,6 C12,6.55228475 11.5562834,7 11.0001925,7 L7.99980749,7 C7.44762906,7 7,6.55613518 7,6 Z M7.5,4 C7.77614237,4 8,3.77614237 8,3.5 C8,3.22385763 7.77614237,3 7.5,3 C7.22385763,3 7,3.22385763 7,3.5 C7,3.77614237 7.22385763,4 7.5,4 Z M11.5,4 C11.7761424,4 12,3.77614237 12,3.5 C12,3.22385763 11.7761424,3 11.5,3 C11.2238576,3 11,3.22385763 11,3.5 C11,3.77614237 11.2238576,4 11.5,4 Z" id="Oval-230-Copy" sketch:type="MSShapeGroup"></path>
        </g>
    </g>
</svg>