<?xml version="1.0" encoding="utf-8"?>
<!-- Generator: Adobe Illustrator 18.1.1, SVG Export Plug-In . SVG Version: 6.00 Build 0)  -->
<svg version="1.1" id="Layer_1" xmlns="http://www.w3.org/2000/svg" xmlns:xlink="http://www.w3.org/1999/xlink" x="0px" y="0px"
	 viewBox="0 25 113.4 63.5" enable-background="new 0 25 113.4 63.5" xml:space="preserve">
<g>
	<path fill="#FFFFFF" d="M88,58.9c-6.9-3.1-16.4-2.1-23,3.1c-7.9,6.2-8.9,17.5,0,23.3c10.3,6.5,24.7,2.4,29.5-7.2
		C98.7,70.6,95.2,62.3,88,58.9z"/>
	<path fill="#FFFFFF" d="M36.7,35.3c-4.1-2.1-14-2.1-22.6-0.7C3.4,36.7-2.7,40.8,1.4,43.8c4.5,3.1,18.2,2.7,28.1-0.7
		C38,40.4,40.8,37,36.7,35.3z"/>
	<path fill="#FFFFFF" d="M107.2,36.7c-3.8-1.4-8.2-1.4-9.6,0c-1.7,1.4,0.3,3.8,4.8,5.5c4.8,1.7,9.6,1.7,10.3,0
		C113.7,40.4,111,38,107.2,36.7z"/>
	<path fill="#FFFFFF" d="M90.1,30.8c-3.4-1-7.9-1.4-10.3-0.7c-2.4,1-1.4,2.7,2.4,4.1c3.8,1.4,8.6,1.7,10.6,0.3
		C94.9,33.9,93.2,31.9,90.1,30.8z"/>
	<path fill="#FFFFFF" d="M75,25.7c-2.7-1-7.5-1.4-10.3-0.7c-3.1,0.3-2.7,2.1,0.3,3.1c3.4,1,7.9,1.4,10.6,0.7
		C78.1,28.1,77.8,26.7,75,25.7z"/>
	<path fill="#FFFFFF" d="M100.4,44.5c-4.8-1.7-10.6-1.7-13.4,0.3c-3.1,2.4-1.4,6.9,4.8,9.6c6.5,2.7,14,2.1,15.8-1.4
		C108.9,50.4,105.9,46.2,100.4,44.5z"/>
	<path fill="#FFFFFF" d="M58.9,45.6c-5.5-2.4-15.4-2.1-23.3,0.7C26,50,21.2,56.5,27.4,60.6c6.5,4.1,20.9,2.7,29.5-2.7
		C63.7,53.4,64.4,48,58.9,45.6z"/>
	<path fill="#FFFFFF" d="M78.8,36.3c-4.1-1.7-9.9-1.7-14-0.3c-4.5,1.7-4.8,4.8,0.3,6.9s12.3,2.1,15.8,0
		C84.3,40.4,82.9,37.7,78.8,36.3z"/>
	<path fill="#FFFFFF" d="M60.6,29.1c-3.4-1.4-9.6-1.7-14-0.7c-5.1,1-6.5,3.4-2.7,5.1c3.8,1.7,11.3,1.7,16.1,0.3
		C64.1,32.5,64.4,30.5,60.6,29.1z"/>
</g>
</svg>
