<?xml version="1.0" encoding="utf-8"?>
<!-- Generator: Adobe Illustrator 18.1.1, SVG Export Plug-In . SVG Version: 6.00 Build 0)  -->
<svg version="1.1" id="Layer_1" xmlns="http://www.w3.org/2000/svg" xmlns:xlink="http://www.w3.org/1999/xlink" x="0px" y="0px"
	 viewBox="0 64.2 269 42.2" enable-background="new 0 64.2 269 42.2" xml:space="preserve">
<g>
	<path fill="#FFFFFF" d="M187.2,83.7c-3.7-1.6-9.4-1-12.9,1.8c-4.5,3.4-5,9.6,0.1,12.9c5.6,3.7,13.8,1.3,16.6-4.2
		C193.1,90,191.2,85.4,187.2,83.7"/>
	<path fill="#FFFFFF" d="M170.9,76.1c-3-1.3-8.6-1.2-13.1,0.4c-5.5,2.1-8.2,5.6-4.8,7.9c3.7,2.4,11.7,1.5,16.6-1.5
		C173.7,80.5,173.8,77.6,170.9,76.1"/>
	<path fill="#FFFFFF" d="M158.3,70.3c-2.2-1-7.9-1.2-12.8-0.1c-5.9,1-9.4,3.4-7,5c2.5,1.6,10.2,1.5,15.9-0.3
		C159.1,73.3,160.6,71.3,158.3,70.3"/>
	<path fill="#FFFFFF" d="M182.2,70.9c-2.4-0.9-5.6-1-7.9-0.1c-2.5,0.9-2.7,2.7,0.1,3.9c2.8,1.2,7,1.2,8.9,0
		C185,73.4,184.4,71.8,182.2,70.9"/>
	<path fill="#FFFFFF" d="M198,71.2c-2.1-0.7-4.6-0.7-5.3,0c-1,0.7,0.3,2.1,2.8,3c2.7,0.9,5.3,1,5.8,0
		C201.7,73.3,200.3,71.9,198,71.2"/>
	<path fill="#FFFFFF" d="M188.4,67.9c-1.9-0.6-4.5-0.7-5.6-0.3c-1.3,0.4-0.7,1.6,1.3,2.4c2.1,0.7,4.9,0.9,6.1,0.1
		C191.1,69.6,190.2,68.5,188.4,67.9"/>
	<path fill="#FFFFFF" d="M179.9,65.1c-1.6-0.6-4.2-0.7-5.8-0.4c-1.6,0.3-1.5,1.2,0.3,1.8c1.9,0.6,4.5,0.9,5.9,0.3
		C181.7,66.4,181.6,65.7,179.9,65.1"/>
	<path fill="#FFFFFF" d="M194.2,75.5c-2.7-1-6.1-0.9-7.6,0.3c-1.8,1.3-0.7,3.9,2.7,5.3c3.7,1.5,7.9,1.2,8.8-0.7
		C199.1,78.8,197.1,76.5,194.2,75.5"/>
	<path fill="#FFFFFF" d="M171.9,67c-1.8-0.7-5.3-0.9-7.9-0.4c-3,0.6-3.7,1.8-1.5,2.8c2.1,1,6.4,1,9.1,0.3
		C173.7,69,173.8,67.8,171.9,67"/>
	<path fill="#FFFFFF" d="M215.7,95.1c0-0.1,1.5-3.4,1.6-3.7h-7.7c-3.3,0-5.5,0.6-7.7,1.8c-2.4,1.3-4.2,3.4-5.2,5.6
		c-0.4,0.9-0.6,1.9-0.6,2.7c0,1.2,0.3,2.1,1,3c1,1.3,3,1.8,6.2,1.8h7.6c0-0.1,1.3-3.3,1.5-3.6h-6.4c-1.6,0-2.7,0-3.4-0.4
		c-0.4-0.3-0.9-0.7-0.9-1.5c0-0.4,0.1-1,0.4-1.6c1.2-3,3-3.9,7.3-3.9h6.2"/>
	<path fill="#FFFFFF" d="M232,98.7c-1.3,3.1-3.1,4.2-7.7,4.2c-0.6,0-1-0.1-1.3-0.3c-0.4-0.3-0.9-0.7-0.9-1.8c0-0.4,0.1-1,0.4-1.8
		c1.3-3.1,3.1-4.2,7.7-4.2c0.9,0.1,1,0.1,1.3,0.4c0.4,0.3,0.7,0.7,0.9,1.6C232.5,97.3,232.3,97.9,232,98.7z M236.9,93.3l-0.1-0.1
		c-1.2-1.3-2.8-1.9-6.2-1.9h-0.4c-3.3,0-5.6,0.6-7.9,1.8c-0.1,0-0.1,0.1-0.3,0.1c-2.2,1.3-4.2,3.4-5,5.6c-0.4,1-0.6,1.9-0.6,2.8
		c0,1,0.3,2.1,0.9,2.8l0.1,0.1c1.2,1.3,3,1.8,6.4,1.8h0.4c3.3,0,5.6-0.6,7.9-1.8c0.1,0,0.1-0.1,0.3-0.1c2.2-1.3,3.9-3.4,4.9-5.6
		c0.4-1,0.6-1.9,0.6-2.8C237.8,94.9,237.5,94.1,236.9,93.3z"/>
	<path fill="#FFFFFF" d="M22.1,90.8c-0.1,0.7-0.4,1.2-0.6,1.5c-0.7,1.3-1.8,2.1-4,2.1h-6.2l2.1-4.8h6.5c1.2,0,2.1,0.1,2.2,0.6
		C22.1,90.3,22.1,90.6,22.1,90.8 M19.9,98.5c0,0.6-0.3,1.3-0.9,2.1c-0.9,1.2-1.8,2.1-4,2.1H7.7l2.4-5.3h7.4c1.3,0,2.1,0.1,2.2,0.6
		C19.9,98.1,19.9,98.4,19.9,98.5 M27.9,89.8c0-1-0.4-1.9-1.5-2.7c-1-0.7-2.7-0.9-5.8-0.9H9.2c0,0.3-8.3,19.6-8.5,20h13.7
		c5.8,0,9.2-1.8,10.8-5.5c0.3-0.6,0.4-1,0.4-1.6V99c0-1-0.7-2.2-1.8-2.8L23.8,96l0.1-0.1c2.1-1.5,3-2.4,3.7-4.2
		c0.3-0.6,0.3-1,0.4-1.5C27.9,90,27.9,89.9,27.9,89.8"/>
	<path fill="#FFFFFF" d="M29.2,98.8c-0.4,1.2-0.7,2.2-0.7,3.1c0,0.7,0.1,1.5,0.6,2.1c0.9,1.5,3.1,2.2,6.5,2.2h8
		c0-0.1,1.3-3.1,1.5-3.4h-7.6c-1.8,0-2.8-0.3-3.1-0.7c-0.1-0.1-0.1-0.3-0.1-0.4v-0.1c0-0.1,0.1-0.4,0.3-0.9l0.1-0.4h11.6
		c0-0.1,1-2.5,1.2-2.8H35.8l0.1-0.3c0.9-1.5,1.6-2.2,4.5-2.2h8.3c0-0.1,1.3-3.1,1.5-3.4H42C34.6,91.4,31.3,93.9,29.2,98.8"/>
	<path fill="#FFFFFF" d="M57.9,102.2c-0.1-0.1-0.1-0.3-0.1-0.4v-0.1c0-0.3,0.1-0.7,0.4-1.3l2.4-5.5h6.8c0-0.1,1.3-3.1,1.5-3.4h-6.8
		c0,0,2.1-4.8,2.2-5.2h-0.4h-4.9c0,0.1-2.2,5.2-2.2,5.2s-3.1,0-3.4,0c0,0.1-1.3,3.1-1.5,3.4h3.4l-2.8,6.5c-0.3,0.6-0.4,1.2-0.4,1.8
		s0,1.2,0.3,1.6c0.6,0.9,1.9,1.5,3.9,1.5h6.4c0-0.1,1.3-3.1,1.5-3.4h-4.2C58.8,102.8,58,102.7,57.9,102.2"/>
	<path fill="#FFFFFF" d="M121.7,102.8h-5.8h-0.1c-0.9,0-1.6,0-1.6-0.4v-0.3l0.1-0.4c0.4-1,1.3-1.3,3.3-1.3h5h0.3L121.7,102.8
		 M129.7,93.3c-0.7-1.2-2.7-1.8-5.5-1.8h-9.8h-0.1c0,0.1-1.3,3.1-1.5,3.4h8.3c0.7,0,2.7,0.1,3.1,0.7c0,0,0.1,0.1,0.1,0.4
		c0,0.1-0.1,0.4-0.3,0.7l-0.1,0.3v0.1H118c-5.5,0-7.9,1.2-9.4,4.5c-0.3,0.6-0.3,1-0.4,1.5c0,0.6,0,1,0.3,1.5c0.6,1,1.9,1.5,4.2,1.5
		h13.1c0.4-0.9,3.9-9.1,3.9-9.1c0.3-0.9,0.6-1.6,0.6-2.2C130.2,94.2,130,93.8,129.7,93.3"/>
	<path fill="#FFFFFF" d="M136.9,91.4c-0.1,0.1-6.1,14.4-6.4,14.8h5.6c0-0.1,6.1-14.4,6.4-14.8h-0.4H136.9"/>
	<path fill="#FFFFFF" d="M139.1,86.2c0,0.1-1.3,3-1.5,3.4h5.6c0-0.1,1.3-3,1.5-3.4H139.1"/>
	<path fill="#FFFFFF" d="M267.8,93.2c-0.7-1.2-2.5-1.8-5.8-1.8h-18.3h-0.1c0,0.1-6.1,14.4-6.4,14.8h5.3c0-0.1,4.8-11.1,4.8-11.1h5
		c0,0-4.6,10.7-4.8,11.1h5.5c0.1-0.1,4.8-11.1,4.8-11.1h2.5c1.3,0,1.9,0.1,2.1,0.4c0,0.1,0.1,0.1,0.1,0.3c0,0.3-0.1,0.7-0.4,1.5
		c0,0-3.6,8.5-3.9,8.9h5.3c0.4-0.9,4-9.2,4-9.2c0.4-0.9,0.6-1.8,0.6-2.5C268.3,94.1,268.1,93.5,267.8,93.2"/>
	<path fill="#FFFFFF" d="M156.5,91.4h-8.9h-0.1c0,0.1-6.1,14.4-6.4,14.8h5.2c0.1-0.1,4.8-11.1,4.8-11.1h3.6c1.3,0,1.9,0.1,2.2,0.4
		c0,0.1,0.1,0.1,0.1,0.3c0,0.3-0.1,0.7-0.4,1.3c0,0-3.7,8.6-3.9,8.9h5.3c0.4-0.9,4-9.2,4-9.2c0.4-1,0.6-1.8,0.6-2.5
		c0-0.6-0.1-1-0.3-1.3C161.5,92,159.7,91.4,156.5,91.4"/>
	<path fill="#FFFFFF" d="M110.9,91.4c0,0-5.6,0-7.3,0c-1.8,0-2.7,0.4-3.3,0.7c-0.4,0.3-1.3,0.9-2.2,3c-1.8,4.3-4.6,10.8-4.8,11.1
		h5.3c0-0.1,3.1-7.3,4.3-10.2c0.3-0.6,0.6-0.7,0.7-0.9c0.4-0.3,3-0.3,3-0.3h2.4L110.9,91.4"/>
	<path fill="#FFFFFF" d="M88.8,91.2c-0.1,0.7-0.4,1.2-0.6,1.5c-0.7,1.3-1.8,1.9-4,1.9h-6.1l2.1-4.6h6.4c1.2,0,1.9,0.1,2.2,0.6
		C88.8,90.8,88.8,90.9,88.8,91.2 M86.5,98.7c0,0.4-0.3,1.3-0.9,2.1c-0.9,1.2-1.8,2.1-4,2.1h-7.1l2.2-5.3H84c1.2,0,1.9,0.1,2.2,0.6
		C86.5,98.2,86.5,98.5,86.5,98.7 M94.3,90.2c0-1-0.4-1.9-1.5-2.5c-1-0.6-2.5-0.9-5.6-0.9H76c0,0.1-8.2,19.2-8.3,19.4h13.2
		c5.6,0,9.1-1.6,10.5-5.3c0.3-0.6,0.4-1,0.4-1.5v-0.1c0-1-0.7-2.1-1.8-2.8L90,96.3l0.1-0.1c1.9-1.5,3-2.4,3.7-4.2
		c0.3-0.6,0.3-1,0.4-1.5C94.3,90.3,94.3,90.3,94.3,90.2"/>
</g>
</svg>
